<?xml version="1.0" standalone="no"?>
<!DOCTYPE svg PUBLIC "-//W3C//DTD SVG 20010904//EN"
 "http://www.w3.org/TR/2001/REC-SVG-20010904/DTD/svg10.dtd">
<svg version="1.0" xmlns="http://www.w3.org/2000/svg"
 width="1135.000000pt" height="1112.000000pt" viewBox="0 0 1135.000000 1112.000000"
 preserveAspectRatio="xMidYMid meet">

  <g transform="translate(0.000000,1112.000000) scale(0.100000,-0.100000)"
  fill="#000000" stroke="none">
  <path d="M4970 9710 c0 -775 0 -1413 0 -1417 0 -5 314 -8 698 -8 657 0 697 1
  696 18 0 9 -1 647 -2 1417 l-2 1400 -695 0 -695 0 0 -1410z m1380 -10 l0
  -1410 -685 0 -685 0 0 1410 0 1410 685 0 685 0 0 -1410z"/>
  <path d="M2483 9258 c-2 -5 307 -8 686 -8 l691 0 0 -1100 0 -1100 -685 0 -685
  0 -3 1098 -2 1097 -3 -1102 -2 -1103 695 0 695 0 -2 1110 -3 1110 -688 2
  c-379 2 -691 0 -694 -4z"/>
  <path d="M7494 9261 c-2 -2 -4 -503 -4 -1113 l0 -1108 695 0 c382 0 695 3 695
  8 0 4 -310 6 -690 4 l-690 -2 0 1100 0 1100 692 0 c380 0 689 3 685 6 -6 7
  -1376 11 -1383 5z"/>
  <path d="M8875 8145 c0 -594 1 -836 2 -537 2 299 2 785 0 1080 -1 295 -2 51
  -2 -543z"/>
  <path d="M7 7993 c-4 -3 -7 -564 -7 -1245 l0 -1238 700 0 700 0 0 1233 c0 946
  -3 1236 -12 1245 -9 9 -177 12 -693 12 -375 0 -685 -3 -688 -7z m1373 -1243
  l0 -1230 -685 0 -685 0 0 1230 0 1230 685 0 685 0 0 -1230z"/>
  <path d="M9966 7985 c-8 -21 -8 -2438 0 -2459 6 -14 71 -16 698 -14 l691 3
  -687 2 -688 3 0 1230 0 1230 685 0 c450 0 685 3 685 10 0 7 -236 10 -689 10
  -611 0 -690 -2 -695 -15z"/>
  <path d="M4970 3815 l0 -3815 695 0 695 0 0 3815 0 3815 -695 0 -695 0 0
  -3815z"/>
  <path d="M2493 6363 c-10 -4 -13 -464 -13 -2254 l0 -2249 690 0 690 0 0 2249
  c0 2041 -1 2249 -16 2255 -19 7 -1333 7 -1351 -1z"/>
  <path d="M7507 6363 c-4 -3 -7 -1018 -7 -2255 l0 -2248 690 0 690 0 0 2249 c0
  2041 -1 2249 -16 2255 -21 8 -1349 8 -1357 -1z"/>
  <path d="M8 3975 l2 -855 688 2 687 3 0 850 0 850 -690 3 -690 2 3 -855z"/>
  <path d="M9946 4821 c-3 -5 -5 -388 -3 -852 l2 -844 684 -3 c404 -1 687 2 690
  7 3 5 5 390 3 855 l-2 846 -685 0 c-381 0 -686 -4 -689 -9z"/>
  </g>
</svg>
